<svg xmlns="http://www.w3.org/2000/svg" viewBox="0 0 32 32" width="32" height="32"><rect width="32" height="32" rx="7" fill="#0B1B2B"/><g transform="translate(2 2) scale(.4375)"><g fill="none" stroke="#EEF4F6" stroke-width="4.5" stroke-linecap="round" stroke-linejoin="round"><path d="M8 20V14a6 6 0 0 1 6-6h6M44 8h6a6 6 0 0 1 6 6v6M56 44v6a6 6 0 0 1-6 6h-6M20 56h-6a6 6 0 0 1-6-6v-6"/></g><path stroke="#EEF4F6" stroke-width="4" stroke-linecap="round" d="M20 22h16M20 29h22"/><path stroke="#EEF4F6" stroke-opacity=".3" stroke-width="4" stroke-linecap="round" d="M20 45h12"/><path stroke="#2ED8C9" stroke-width="4.5" stroke-linecap="round" d="M14 37h36"/><circle fill="#2ED8C9" cx="42" cy="37" r="6"/></g></svg>
